<?xml version="1.0" standalone="no"?>
<!DOCTYPE svg PUBLIC "-//W3C//DTD SVG 20010904//EN"
 "http://www.w3.org/TR/2001/REC-SVG-20010904/DTD/svg10.dtd">
<svg version="1.0" xmlns="http://www.w3.org/2000/svg"
 width="400.000000pt" height="400.000000pt" viewBox="0 0 400.000000 400.000000"
 preserveAspectRatio="xMidYMid meet">
<metadata>
Created by potrace 1.14, written by Peter Selinger 2001-2017
</metadata>
<g transform="translate(0.000000,400.000000) scale(0.100000,-0.100000)"
fill="#000000" stroke="none">
<path d="M0 2000 l0 -2000 2000 0 2000 0 0 2000 0 2000 -2000 0 -2000 0 0
-2000z m1875 1743 c-16 -9 -64 -46 -105 -82 -41 -37 -97 -84 -123 -105 -35
-28 -58 -58 -82 -109 -19 -39 -32 -73 -30 -75 2 -3 10 7 16 22 7 15 18 25 25
22 7 -3 30 16 50 41 57 70 71 83 167 162 93 75 144 107 155 96 11 -11 15 -246
7 -452 l-7 -193 -42 -11 c-319 -87 -512 -158 -572 -212 -18 -15 -40 -34 -50
-42 -12 -9 -14 -14 -6 -15 8 0 10 -5 6 -12 -4 -7 12 0 37 15 148 93 351 157
582 183 l57 6 0 -56 0 -56 -62 -2 -63 -2 63 -3 c58 -4 62 -5 62 -28 0 -17 -6
-25 -17 -25 -129 -1 -448 -75 -499 -116 -18 -15 -18 -15 2 -5 11 5 47 16 80
24 32 8 68 18 78 22 13 6 17 5 13 -3 -4 -6 -22 -14 -40 -17 -47 -11 -180 -56
-194 -68 -7 -5 -20 -7 -29 -3 -20 8 -62 -14 -120 -65 -33 -28 -49 -37 -54 -28
-5 8 -10 5 -15 -10 -3 -12 -10 -19 -15 -16 -23 14 -26 -100 -5 -173 16 -53 96
-169 141 -205 32 -25 30 -33 -13 -56 -21 -11 -48 -28 -60 -38 -23 -18 -22 -18
30 -17 28 1 63 4 77 8 l25 8 -21 -19 c-12 -10 -30 -24 -40 -30 -17 -12 -17
-12 6 -8 20 4 40 -7 96 -52 39 -32 102 -79 140 -104 127 -84 209 -135 228
-142 10 -4 17 -10 14 -12 -6 -6 -150 24 -163 34 -5 5 -46 18 -90 30 -136 36
-152 44 -187 92 -40 55 -57 73 -65 66 -3 -4 -1 -19 5 -34 7 -15 14 -44 17 -63
l6 -35 -31 30 c-45 43 -73 92 -67 117 4 15 3 18 -5 10 -12 -12 -2 -82 11 -82
5 0 11 -7 15 -15 10 -27 -9 -15 -31 20 -15 23 -28 32 -38 29 -16 -7 -22 21 -6
30 5 3 14 20 20 37 10 28 9 30 -6 18 -14 -12 -15 -11 -9 11 6 23 6 24 -6 5 -7
-11 -20 -21 -28 -23 -8 -2 -23 -12 -32 -24 -18 -20 -18 -20 -18 0 0 23 62 82
148 140 34 24 62 45 62 48 0 3 -24 35 -53 72 -75 93 -93 127 -113 206 -24 95
-15 127 94 366 44 96 82 193 101 258 12 40 57 129 112 222 50 85 104 182 119
215 23 50 39 68 96 110 38 27 96 75 129 106 34 32 75 62 95 67 51 15 59 13 25
-5z m316 -40 c13 -16 12 -17 -3 -4 -10 7 -18 15 -18 17 0 8 8 3 21 -13z m94
-72 c26 -23 52 -57 57 -75 12 -34 139 -255 170 -296 38 -49 135 -270 198 -455
39 -112 111 -281 126 -295 5 -4 29 -15 54 -24 88 -33 125 -87 117 -170 -4 -42
-10 -55 -45 -88 -35 -32 -48 -38 -85 -38 -25 0 -61 7 -81 15 -34 15 -39 14
-64 -4 -15 -10 -36 -29 -47 -41 -47 -52 -54 -37 -7 17 32 36 58 78 68 111 9
28 20 49 24 47 12 -8 40 72 40 113 0 44 -26 104 -63 148 -28 33 -35 50 -16 38
28 -17 -31 62 -83 112 -65 62 -66 71 -2 18 54 -43 56 -38 7 18 -21 24 -26 33
-12 21 30 -27 43 -30 31 -5 -5 9 -15 40 -21 67 -7 28 -18 59 -25 70 -8 11 -17
36 -21 55 -14 67 -47 143 -55 129 -6 -8 -11 1 -15 27 -4 21 -33 82 -65 134
-32 52 -84 145 -115 205 -34 67 -74 129 -103 159 -56 58 -34 50 33 -13z m605
-390 c21 -39 -19 -73 -60 -51 -22 12 -26 40 -8 58 18 18 56 14 68 -7z m238
-103 c7 -7 12 -21 12 -33 0 -45 -53 -61 -85 -25 -15 17 -16 24 -7 45 13 27 58
35 80 13z m-1134 -303 c3 -8 1 -15 -4 -15 -6 0 -10 7 -10 15 0 8 2 15 4 15 2
0 6 -7 10 -15z m-241 -82 c-7 -2 -21 -2 -30 0 -10 3 -4 5 12 5 17 0 24 -2 18
-5z m165 -52 c54 -37 112 -61 149 -60 l38 0 -44 20 c-56 25 -48 35 10 13 24
-9 72 -19 106 -23 56 -6 83 -15 72 -24 -2 -2 -47 -22 -99 -44 -76 -32 -96 -45
-98 -63 -3 -19 0 -22 17 -17 28 7 17 -10 -23 -34 -34 -21 -23 -24 38 -10 23 6
48 6 63 0 18 -7 25 -5 29 6 4 8 11 12 16 9 6 -4 14 -1 18 6 4 7 13 9 19 5 9
-5 8 -13 -4 -31 -21 -32 -7 -30 35 5 34 28 35 29 17 49 -14 15 -15 21 -5 25
20 8 -41 7 -94 -2 -27 -4 -48 -6 -48 -5 0 7 140 74 154 74 13 0 24 -19 33 -60
2 -8 4 -37 4 -64 1 -31 4 -44 10 -35 6 10 9 7 9 -12 0 -33 -37 -89 -72 -108
-23 -13 -34 -13 -79 -2 -28 8 -79 24 -112 38 -32 13 -63 23 -69 21 -5 -2 33
-19 86 -38 52 -19 93 -36 91 -39 -2 -2 -47 11 -100 29 -52 18 -98 30 -102 26
-4 -3 -2 -34 4 -69 5 -34 7 -73 3 -87 -4 -14 -14 -51 -21 -83 -8 -38 -17 -56
-25 -53 -7 2 -20 -1 -30 -9 -16 -11 -20 -10 -31 4 -7 9 -13 13 -13 9 0 -4 15
-24 33 -45 l32 -37 -50 34 c-76 51 -198 145 -216 166 -9 11 -20 38 -24 60 -5
30 -13 44 -31 52 -18 9 -24 9 -25 -1 -1 -15 -17 23 -18 42 -1 12 2 12 17 -1 9
-8 24 -19 32 -23 12 -7 12 -5 -1 11 -50 59 -86 219 -68 303 l10 49 62 11 c34
6 76 15 92 20 17 5 63 10 103 10 57 1 80 -3 100 -18z m447 -134 c-1 -34 -5
-70 -11 -79 -7 -12 -9 8 -9 72 0 59 3 86 10 79 6 -6 10 -38 10 -72z m-875 43
c17 -9 40 -58 40 -88 0 -12 -3 -12 -17 -1 -17 13 -17 13 0 -11 19 -28 47 -88
47 -101 0 -18 -27 -8 -52 19 -61 64 -87 149 -56 180 14 14 15 14 38 2z m978
-40 c3 -40 -45 -132 -78 -150 -26 -14 -26 1 0 17 10 7 24 32 30 55 7 24 19 51
27 60 15 17 9 43 -8 33 -5 -4 -9 1 -9 10 0 10 7 15 18 13 12 -2 18 -14 20 -38z
m309 -202 c-2 -13 -4 -3 -4 22 0 25 2 35 4 23 2 -13 2 -33 0 -45z m-458 -75
c-15 -48 -37 -81 -60 -93 -17 -9 -16 -6 3 42 21 51 57 103 66 94 2 -3 -2 -22
-9 -43z m-993 -78 c82 -76 214 -153 383 -224 48 -20 32 -23 -25 -5 -128 42
-316 145 -371 204 -30 32 -51 70 -38 70 1 0 25 -20 51 -45z m279 -87 c39 -24
82 -50 97 -58 16 -7 26 -15 24 -18 -3 -2 -40 15 -84 38 -85 46 -165 108 -183
143 -7 14 6 6 32 -20 24 -22 76 -61 114 -85z m1156 -49 c108 -74 159 -118 159
-137 0 -12 -10 -6 -37 19 -49 45 -120 99 -130 99 -13 0 -89 69 -77 70 6 0 44
-23 85 -51z m-933 -155 c2 -16 15 -74 30 -129 21 -81 26 -122 26 -212 l-1
-113 74 0 73 0 0 93 c0 106 14 167 66 293 41 102 49 113 67 95 10 -10 8 -16
-8 -29 -12 -9 -38 -64 -59 -122 -32 -90 -38 -121 -43 -217 l-6 -113 307 0
c373 0 352 8 341 -129 -9 -116 -32 -283 -34 -246 -1 17 6 94 15 173 15 125 15
145 3 158 -13 12 -49 13 -245 6 -130 -5 -192 -10 -144 -12 63 -2 77 -4 55 -10
-29 -7 -29 -8 10 -10 22 -1 49 -5 60 -9 35 -14 -48 -21 -325 -27 -146 -4 -270
-11 -277 -16 -7 -5 -115 -12 -240 -15 l-229 -6 -41 47 c-23 26 -44 43 -47 37
-3 -5 5 -107 19 -227 13 -121 31 -291 40 -379 8 -88 17 -180 20 -205 3 -28 1
-39 -4 -30 -5 8 -16 83 -25 165 -23 221 -45 407 -61 517 -21 138 -20 164 10
193 l24 25 289 0 289 0 6 58 c10 97 -34 354 -66 386 -24 25 -22 47 6 42 16 -2
23 -11 25 -32z m1137 -149 c62 -170 91 -239 119 -284 14 -22 25 -58 28 -91 3
-37 13 -69 32 -99 27 -42 28 -47 18 -105 l-11 -61 4 59 c4 54 1 65 -32 118
-30 49 -35 63 -29 96 5 33 1 45 -25 80 -51 69 -186 402 -173 424 10 16 20 -3
69 -137z m-1862 63 c34 -136 48 -201 43 -205 -3 -3 -12 20 -21 51 -27 91 -38
60 -30 -81 5 -89 4 -132 -5 -153 -7 -17 -16 -30 -20 -30 -14 0 -40 92 -40 139
0 25 6 83 14 129 7 46 10 80 6 75 -5 -4 -40 -89 -80 -188 -73 -184 -87 -209
-159 -283 -22 -23 -41 -44 -41 -47 0 -2 30 9 66 24 69 29 73 29 153 -1 29 -11
25 -16 -19 -22 -19 -3 -68 -10 -107 -15 -59 -8 -120 -29 -141 -46 -6 -5 21
-96 27 -92 114 61 238 102 138 45 -116 -66 -182 -114 -200 -145 -18 -31 -18
-35 -2 -83 9 -27 14 -60 12 -72 -3 -18 -5 -17 -6 7 0 17 -10 48 -22 70 -18 33
-19 44 -10 75 6 20 22 47 36 60 28 26 31 53 10 90 -24 42 -18 58 54 134 71 75
97 117 136 220 61 159 173 406 186 406 4 0 14 -28 22 -62z m54 -15 c27 -35 53
-93 58 -128 2 -19 3 -35 1 -35 -9 0 -38 55 -60 114 -25 66 -25 81 1 49z m1317
-204 c-35 -34 -58 -66 -66 -90 -6 -22 -16 -39 -21 -39 -6 0 -34 13 -63 30
l-53 29 -31 -35 c-17 -20 -33 -35 -35 -33 -1 2 14 33 35 67 22 35 40 68 42 73
2 6 39 9 82 7 l80 -3 -54 -29 c-50 -27 -52 -30 -32 -39 12 -6 22 -14 22 -19 0
-10 -1 -10 -39 3 -40 14 -39 31 2 52 31 15 31 16 6 16 -15 1 -35 -9 -48 -23
l-22 -24 54 -29 54 -29 11 28 c8 22 7 28 -4 28 -24 0 -15 17 15 30 16 6 39 22
52 36 l22 24 -125 0 c-134 0 -158 -4 -158 -26 0 -17 -10 -17 -46 -3 l-28 10
30 19 c26 18 48 20 201 20 l172 0 -55 -51z m-214 5 c0 -13 -74 -144 -81 -144
-4 0 6 34 23 75 17 42 36 75 44 75 8 0 14 -3 14 -6z m604 -27 c-3 -9 -11 -17
-18 -17 -6 -1 0 -8 14 -16 l25 -15 -30 6 -30 6 25 -21 c29 -23 43 -24 73 -9
l22 11 -21 -21 c-17 -19 -25 -20 -48 -11 -46 17 -64 11 -26 -10 45 -25 65 -25
103 1 28 18 27 16 -7 -15 l-38 -35 -49 24 c-26 14 -50 21 -53 17 -6 -11 78
-52 106 -52 11 0 36 10 55 21 19 12 36 19 39 17 5 -6 -81 -68 -95 -68 -6 0
-43 16 -82 35 l-70 36 7 37 c11 62 21 78 56 95 35 17 53 11 42 -16z m-1274
-73 c0 -2 -9 -4 -20 -4 -11 0 -20 4 -20 9 0 5 9 7 20 4 11 -3 20 -7 20 -9z
m1618 -470 c9 -11 2 -5 -15 13 -18 18 -33 41 -33 50 0 12 5 8 16 -12 8 -16 23
-39 32 -51z m-1171 3 c4 -6 0 -8 -10 -4 -20 7 -23 -8 -4 -17 9 -5 9 -7 0 -12
-10 -4 -10 -11 -2 -25 11 -21 4 -59 -12 -59 -5 0 -9 4 -9 10 0 5 -8 6 -17 3
-16 -6 -16 -5 -4 11 10 12 11 20 4 24 -6 4 -13 21 -15 37 -3 26 -6 30 -30 27
-16 -2 -28 1 -28 8 0 6 4 9 9 6 5 -4 19 -2 31 2 27 10 78 4 87 -11z m613 -161
c-7 -72 -14 -133 -17 -136 -3 -3 -3 29 0 70 15 181 21 234 25 216 2 -11 -1
-78 -8 -150z m-690 123 c0 -17 -4 -28 -10 -24 -5 3 -10 1 -10 -4 0 -6 9 -11
21 -11 11 0 17 -5 14 -10 -4 -6 -12 -7 -18 -3 -7 4 -6 0 2 -10 7 -9 19 -17 27
-17 7 0 16 -5 20 -12 5 -8 2 -9 -9 -5 -10 3 -17 2 -17 -3 0 -6 5 -10 10 -10 6
0 5 -6 -2 -14 -18 -19 -29 -10 -22 19 4 18 0 26 -18 36 -12 7 -27 12 -32 11
-5 -2 -4 3 2 11 6 7 13 22 15 33 3 20 15 44 23 44 2 0 4 -14 4 -31z m870 -60
c13 -7 13 -8 -1 -9 -32 0 -79 13 -79 22 0 10 55 2 80 -13z m-1679 -43 c-16
-19 -81 -49 -89 -42 -9 10 10 24 53 40 51 19 50 18 36 2z m143 -183 c4 -38 9
-85 11 -105 3 -24 1 -38 -6 -38 -6 0 -17 -6 -24 -14 -12 -12 -12 -16 0 -26 23
-19 18 -32 -7 -19 -48 26 -107 115 -108 165 0 36 14 55 60 83 59 35 68 30 74
-46z m1431 15 c50 -39 82 -141 53 -166 -7 -6 -31 -13 -52 -18 -37 -6 -39 -5
-33 15 4 18 2 21 -13 16 -17 -5 -19 2 -22 77 -2 46 -2 86 0 91 6 14 40 7 67
-15z m-582 -195 c-35 -2 -91 -2 -125 0 -35 2 -7 3 62 3 69 0 97 -1 63 -3z
m-897 -21 c6 -4 13 -15 17 -25 5 -14 3 -16 -11 -8 -9 5 -26 16 -37 25 l-20 15
20 1 c11 0 25 -4 31 -8z m414 -27 c0 -8 -4 -17 -10 -20 -6 -4 -10 5 -10 20 0
15 4 24 10 20 6 -3 10 -12 10 -20z m30 5 c0 -11 -4 -20 -10 -20 -5 0 -10 9
-10 20 0 11 5 20 10 20 6 0 10 -9 10 -20z m38 -14 c-2 -10 -7 -13 -17 -7 -8 6
-11 16 -7 27 8 21 30 4 24 -20z m41 17 c10 -17 10 -17 11 0 0 9 5 17 10 17 6
0 10 -11 10 -24 0 -20 -5 -23 -30 -22 -24 1 -30 5 -30 23 0 27 15 30 29 6z
m71 -8 c0 -14 -4 -25 -10 -25 -5 0 -10 11 -10 25 0 14 5 25 10 25 6 0 10 -11
10 -25z m38 13 c9 -9 12 -9 12 0 0 19 20 14 21 -5 1 -17 2 -17 6 0 5 17 33 24
33 8 0 -5 3 -17 6 -26 6 -14 1 -16 -22 -14 -16 2 -35 7 -41 12 -8 6 -13 5 -13
-2 0 -6 -7 -11 -15 -11 -9 0 -15 9 -15 25 0 27 9 32 28 13z m112 -13 c0 -14
-4 -25 -10 -25 -5 0 -10 11 -10 25 0 14 5 25 10 25 6 0 10 -11 10 -25z m40 0
c0 -16 -6 -25 -15 -25 -9 0 -15 9 -15 25 0 16 6 25 15 25 9 0 15 -9 15 -25z
m30 0 c0 -14 -4 -25 -10 -25 -5 0 -10 11 -10 25 0 14 5 25 10 25 6 0 10 -11
10 -25z m40 13 c0 -9 4 -8 10 2 9 13 11 13 20 0 5 -8 10 -10 10 -4 0 6 14 11
30 12 17 0 30 -3 30 -8 0 -5 3 -15 6 -24 5 -13 -2 -16 -45 -16 -34 0 -51 4
-51 13 0 9 -3 8 -9 -2 -5 -7 -14 -10 -20 -7 -16 11 -13 46 4 46 8 0 15 -6 15
-12z m140 -13 c0 -14 -4 -25 -10 -25 -5 0 -10 11 -10 25 0 14 5 25 10 25 6 0
10 -11 10 -25z m31 -18 c-8 -8 -11 -3 -11 19 1 25 2 27 11 11 8 -14 8 -22 0
-30z m-724 11 c-3 -8 -6 -5 -6 6 -1 11 2 17 5 13 3 -3 4 -12 1 -19z m37 7 c3
-8 1 -15 -4 -15 -6 0 -10 7 -10 15 0 8 2 15 4 15 2 0 6 -7 10 -15z m36 0 c0
-8 -2 -15 -4 -15 -2 0 -6 7 -10 15 -3 8 -1 15 4 15 6 0 10 -7 10 -15z m690 0
c0 -8 -4 -15 -8 -15 -5 0 -9 7 -9 15 0 8 4 15 9 15 4 0 8 -7 8 -15z m27 -7
c-3 -8 -6 -5 -6 6 -1 11 2 17 5 13 3 -3 4 -12 1 -19z m40 0 c-3 -8 -6 -5 -6 6
-1 11 2 17 5 13 3 -3 4 -12 1 -19z m30 0 c-3 -8 -6 -5 -6 6 -1 11 2 17 5 13 3
-3 4 -12 1 -19z"/>
<path d="M1783 2853 c9 -2 23 -2 30 0 6 3 -1 5 -18 5 -16 0 -22 -2 -12 -5z"/>
<path d="M1728 2843 c7 -3 16 -2 19 1 4 3 -2 6 -13 5 -11 0 -14 -3 -6 -6z"/>
<path d="M1668 2833 c7 -3 16 -2 19 1 4 3 -2 6 -13 5 -11 0 -14 -3 -6 -6z"/>
<path d="M1555 2810 c-140 -41 -292 -114 -327 -158 -8 -11 -1 -9 22 7 54 35
208 106 280 129 121 39 126 40 105 40 -11 0 -47 -8 -80 -18z"/>
<path d="M1635 2610 c3 -5 13 -10 21 -10 12 0 127 -60 142 -75 1 -1 -30 0 -70
2 -53 3 -69 2 -58 -6 8 -6 11 -11 5 -11 -5 0 -17 -4 -25 -10 -12 -7 -12 -12 4
-29 22 -24 38 -28 30 -7 -3 7 2 16 10 19 11 4 16 1 17 -11 0 -11 2 -12 6 -4 4
10 8 10 19 1 9 -8 22 -8 41 -2 16 6 38 9 50 8 18 -1 20 1 12 17 -8 16 -7 17
15 8 26 -9 33 -5 32 19 -1 16 -6 19 -112 65 -77 34 -153 48 -139 26z"/>
<path d="M1984 1020 c0 -13 4 -16 10 -10 7 7 7 13 0 20 -6 6 -10 3 -10 -10z"/>
<path d="M2000 981 c0 -6 5 -13 10 -16 6 -3 10 1 10 9 0 9 -4 16 -10 16 -5 0
-10 -4 -10 -9z"/>
<path d="M2719 633 c-13 -17 -13 -17 6 -3 11 8 22 16 24 17 2 2 0 3 -6 3 -6 0
-17 -8 -24 -17z"/>
</g>
</svg>
